<?xml version="1.0" encoding="iso-8859-1"?>
<!-- Generator: Adobe Illustrator 18.0.0, SVG Export Plug-In . SVG Version: 6.00 Build 0)  -->
<!DOCTYPE svg PUBLIC "-//W3C//DTD SVG 1.1//EN" "http://www.w3.org/Graphics/SVG/1.1/DTD/svg11.dtd">
<svg version="1.1" id="Capa_1" xmlns="http://www.w3.org/2000/svg" xmlns:xlink="http://www.w3.org/1999/xlink" x="0px" y="0px"
	 viewBox="0 0 447.402 447.402" style="enable-background:new 0 0 447.402 447.402;" xml:space="preserve">
<g>
	<path d="M214.68,51.601c-94.896,0-172.1,77.204-172.1,172.1c0,94.896,77.203,172.099,172.1,172.099
		c94.896,0,172.099-77.203,172.099-172.099C386.778,128.805,309.575,51.601,214.68,51.601z M214.68,380.8
		c-86.625,0-157.1-70.474-157.1-157.099c0-86.625,70.475-157.1,157.1-157.1c86.624,0,157.099,70.475,157.099,157.1
		C371.778,310.325,301.304,380.8,214.68,380.8z"/>
	<path d="M170.938,237.231c21.359,0,38.737-17.378,38.737-38.738s-17.378-38.737-38.737-38.737s-38.737,17.377-38.737,38.737v5.718
		c0,4.142,3.357,7.5,7.5,7.5s7.5-3.358,7.5-7.5v-5.718c0-13.089,10.648-23.737,23.737-23.737s23.737,10.649,23.737,23.738
		s-10.648,23.737-23.737,23.737c-21.359,0-38.737,17.377-38.737,38.737v19.177c0,4.142,3.357,7.5,7.5,7.5h62.475
		c4.143,0,7.5-3.358,7.5-7.5v-19.588c0-4.142-3.357-7.5-7.5-7.5s-7.5,3.358-7.5,7.5v12.088h-47.475v-11.677
		C147.201,247.879,157.85,237.231,170.938,237.231z"/>
	<path d="M297.457,241.121h-1.684v-73.865c0-3.316-2.178-6.239-5.355-7.187c-3.177-0.947-6.601,0.303-8.419,3.078l-53.291,81.365
		c-1.509,2.305-1.634,5.251-0.323,7.675c1.31,2.424,3.843,3.934,6.598,3.934h45.791v24.024c0,4.142,3.357,7.5,7.5,7.5
		s7.5-3.358,7.5-7.5v-24.024h1.684c4.143,0,7.5-3.358,7.5-7.5S301.6,241.121,297.457,241.121z M280.773,241.121H248.86
		l31.913-48.725V241.121z"/>
	<path d="M371.034,108.38c1.268,3.079,4.553,4.99,7.858,4.571c3.045-0.386,5.591-2.637,6.343-5.613
		c1.65-6.533-5.848-11.739-11.432-8.058C370.835,101.237,369.72,105.106,371.034,108.38
		C371.224,108.84,370.854,107.93,371.034,108.38z"/>
	<path d="M445.6,177.356l-35.122-41.042c-1.972-2.304-5.14-3.193-8.021-2.255c-2.884,0.94-4.918,3.524-5.154,6.548l-4.201,53.856
		c-0.194,2.498,0.87,4.927,2.839,6.477c1.34,1.055,2.979,1.607,4.64,1.607c0.778,0,1.563-0.121,2.322-0.369l9.898-3.225
		c7.552,60.917-13.372,122.385-56.931,165.943c-37.71,37.715-87.852,58.486-141.188,58.486s-103.48-20.771-141.195-58.486
		C35.771,327.179,15,277.034,15,223.698c0-53.336,20.771-103.477,58.486-141.188c37.129-37.129,86.484-57.896,138.976-58.476
		c52.415-0.574,102.125,19.002,139.993,55.139c2.996,2.86,7.743,2.748,10.604-0.248c2.859-2.997,2.749-7.744-0.248-10.604
		C322.095,29.467,268.624,8.426,212.296,9.035C155.861,9.659,102.797,31.986,62.88,71.903C22.331,112.447,0,166.356,0,223.698
		S22.331,334.952,62.879,375.5c40.549,40.548,94.46,62.879,151.803,62.879s111.251-22.331,151.795-62.879
		c24.632-24.632,43.056-55.127,53.281-88.19c9.259-29.939,11.848-61.985,7.569-93.093l14.898-4.854
		c2.382-0.776,4.219-2.69,4.897-5.102C447.8,181.85,447.229,179.259,445.6,177.356z M410.849,159.817l16.056,18.761l-17.976,5.857
		L410.849,159.817z"/>
</g>
<g>
</g>
<g>
</g>
<g>
</g>
<g>
</g>
<g>
</g>
<g>
</g>
<g>
</g>
<g>
</g>
<g>
</g>
<g>
</g>
<g>
</g>
<g>
</g>
<g>
</g>
<g>
</g>
<g>
</g>
</svg>
